<?xml version="1.0" encoding="utf-8"?>
<!-- Generator: Adobe Illustrator 16.0.0, SVG Export Plug-In . SVG Version: 6.00 Build 0)  -->
<!DOCTYPE svg PUBLIC "-//W3C//DTD SVG 1.1//EN" "http://www.w3.org/Graphics/SVG/1.1/DTD/svg11.dtd">
<svg version="1.1" id="Layer_1" xmlns="http://www.w3.org/2000/svg" xmlns:xlink="http://www.w3.org/1999/xlink" x="0px" y="0px"
	 width="228px" height="260px" viewBox="0 0 228 260" enable-background="new 0 0 228 260" xml:space="preserve">
<g>
	<linearGradient id="SVGID_1_" gradientUnits="userSpaceOnUse" x1="145.8926" y1="96.998" x2="156.3633" y2="96.998">
		<stop  offset="0" style="stop-color:#C09034"/>
		<stop  offset="0.5419" style="stop-color:#F4D76C"/>
		<stop  offset="1" style="stop-color:#C09034"/>
	</linearGradient>
	<path fill="url(#SVGID_1_)" d="M151.205,106.834c1.939,0,3.283-0.637,4.033-1.91c0.75-1.273,1.125-3.925,1.125-7.954
		c0-4.011-0.375-6.647-1.125-7.912s-2.094-1.896-4.033-1.896c-1.965,0-3.342,0.685-4.129,2.053
		c-0.789,1.369-1.184,3.954-1.184,7.756c0,3.82,0.395,6.42,1.184,7.798C147.863,106.146,149.24,106.834,151.205,106.834z"/>
	<linearGradient id="SVGID_2_" gradientUnits="userSpaceOnUse" x1="26" y1="125.084" x2="209.25" y2="125.084">
		<stop  offset="0" style="stop-color:#C09034"/>
		<stop  offset="0.5419" style="stop-color:#F4D76C"/>
		<stop  offset="1" style="stop-color:#C09034"/>
	</linearGradient>
	<path fill="url(#SVGID_2_)" d="M173.666,34.167h-112.5L26,69.334v111.333l35.334,35.334h114l33.916-35.334V69.751L173.666,34.167z
		 M139.107,74.046c3.852-3.82,9.125-5.73,15.819-5.73c3.748,0,6.794,0.68,9.134,2.038c2.338,1.359,3.508,3.113,3.508,5.261
		c0,1.521-0.633,2.747-1.899,3.678c-1.267,0.932-2.935,1.397-5.002,1.397c-1.731,0-3.147-0.366-4.246-1.098
		c-1.099-0.732-1.647-1.668-1.647-2.809c0-0.57,0.143-1.084,0.427-1.54s0.672-0.816,1.163-1.083c0.283-0.152,0.658-0.342,1.125-0.57
		c1.009-0.494,1.513-0.894,1.513-1.197c0-0.456-0.362-0.831-1.086-1.126c-0.726-0.295-1.692-0.442-2.908-0.442
		c-2.973,0-5.223,1.207-6.747,3.621c-1.525,2.414-2.287,5.959-2.287,10.635v1.34c1.293-0.798,2.623-1.378,3.993-1.739
		c1.37-0.36,2.869-0.542,4.498-0.542c4.239,0,7.709,1.15,10.411,3.45c2.701,2.3,4.052,5.274,4.052,8.924
		c0,4.03-1.545,7.229-4.633,9.595c-3.09,2.366-7.271,3.549-12.545,3.549c-5.713,0-10.211-1.753-13.493-5.26
		c-3.283-3.507-4.925-8.358-4.925-14.555C133.33,83.132,135.256,77.866,139.107,74.046z M65.89,106.506h2.017
		c3.153,0,5.306-0.309,6.456-0.927c1.15-0.617,1.726-1.942,1.726-3.977V79.478v-0.371c0-1.786-0.271-2.846-0.814-3.179
		c-0.543-0.332-1.913-0.499-4.11-0.499H65.97l0.039-2.68c4.445-0.058,8.155-0.409,11.128-1.056c2.973-0.646,5.402-1.615,7.29-2.908
		h3.723v32.817c0,2.015,0.543,3.336,1.628,3.963c1.086,0.627,3.142,0.94,6.166,0.94h1.822v2.681H65.89V106.506z M95.94,178.714
		c-3.387,1.92-7.871,2.879-13.455,2.879c-4.783,0-8.744-0.808-11.885-2.423s-4.711-3.611-4.711-5.986c0-1.427,0.626-2.6,1.88-3.521
		c1.253-0.922,2.851-1.383,4.789-1.383s3.495,0.385,4.673,1.154c1.176,0.771,1.764,1.781,1.764,3.036c0,1.521-1.021,2.87-3.063,4.05
		c-0.492,0.285-0.737,0.476-0.737,0.569c0,0.418,0.484,0.817,1.454,1.197c0.969,0.381,2.126,0.569,3.471,0.569
		c2.791,0,4.956-0.746,6.494-2.237c1.538-1.492,2.308-3.568,2.308-6.229c0-2.966-0.627-5.218-1.881-6.758
		c-1.254-1.539-3.083-2.31-5.487-2.31c-0.154,0-0.498,0.02-1.027,0.058c-0.529,0.038-0.988,0.057-1.376,0.057
		c-0.724,0-1.3-0.127-1.726-0.385c-0.427-0.257-0.64-0.594-0.64-1.012c0-0.361,0.181-0.686,0.542-0.971
		c0.362-0.284,0.763-0.428,1.203-0.428c0.568,0,1.221,0.021,1.958,0.058c0.736,0.039,1.169,0.058,1.299,0.058
		c2.067,0,3.709-0.675,4.925-2.023c1.215-1.351,1.822-3.185,1.822-5.504c0-2.66-0.725-4.736-2.172-6.229
		c-1.447-1.492-3.451-2.238-6.01-2.238c-1.086,0-2.017,0.139-2.792,0.413c-0.775,0.276-1.163,0.585-1.163,0.927
		c0,0.114,0.271,0.344,0.814,0.686c1.887,1.197,2.83,2.49,2.83,3.878c0,1.14-0.557,2.095-1.667,2.865
		c-1.112,0.77-2.495,1.153-4.149,1.153c-1.887,0-3.419-0.44-4.595-1.324c-1.177-0.885-1.765-2.039-1.765-3.465
		c0-2.301,1.402-4.148,4.207-5.545c2.805-1.397,6.547-2.097,11.227-2.097c5.17,0,9.229,0.89,12.176,2.666
		c2.946,1.777,4.42,4.215,4.42,7.313c0,2.527-1.164,4.596-3.49,6.201c-2.326,1.605-5.959,2.847-10.896,3.721
		c5.223,0.685,9.113,1.93,11.672,3.734c2.56,1.807,3.84,4.221,3.84,7.242C101.021,174.266,99.326,176.794,95.94,178.714z
		 M168.926,143.573c-3.645,3.325-6.378,6.924-8.199,10.791c-1.824,3.868-2.733,8.017-2.733,12.444c0,1.123,0.077,2.549,0.231,4.277
		s0.232,2.891,0.232,3.479c0,2.205-0.621,3.85-1.861,4.934c-1.24,1.083-3.102,1.624-5.584,1.624c-2.275,0-4.025-0.479-5.254-1.438
		s-1.842-2.313-1.842-4.063c0-2.585,1.416-6.116,4.246-10.593s7.219-10.125,13.164-16.949h-14.928c-2.846,0-4.803,0.38-5.875,1.141
		c-1.073,0.76-1.973,2.48-2.695,5.16h-3.023l1.59-13.656h32.531V143.573z M185.959,130.084h-63.334v63.333h-10v-63.333H49.292v-10
		h63.333V56.751h10v63.333h63.334V130.084z"/>
</g>
</svg>
