<?xml version="1.0" encoding="utf-8"?>
<!-- Generator: Adobe Illustrator 16.0.0, SVG Export Plug-In . SVG Version: 6.00 Build 0)  -->
<!DOCTYPE svg PUBLIC "-//W3C//DTD SVG 1.1//EN" "http://www.w3.org/Graphics/SVG/1.1/DTD/svg11.dtd">
<svg version="1.1" id="Layer_1" xmlns:svgjs="http://svgjs.com/svgjs"
	 xmlns="http://www.w3.org/2000/svg" xmlns:xlink="http://www.w3.org/1999/xlink" x="0px" y="0px" width="612px" height="792px"
	 viewBox="0 0 612 792" enable-background="new 0 0 612 792" xml:space="preserve">
<g>
	<linearGradient id="SVGID_1_" gradientUnits="userSpaceOnUse" x1="0.064" y1="396" x2="611.9326" y2="396">
		<stop  offset="0" style="stop-color:#C09034"/>
		<stop  offset="0.5419" style="stop-color:#F4D76C"/>
		<stop  offset="1" style="stop-color:#C09034"/>
	</linearGradient>
	<path fill="url(#SVGID_1_)" d="M503.157,216.703C503.157,147.505,446.848,90,377.649,90c-26.965,0-52.161,11.538-71.719,32.305
		C286.372,101.538,261.176,90,234.212,90c-69.198,0-125.508,57.505-125.508,126.703c0,69.601,51.075,105.529,110.222,147.149
		c24.39,17.159,49.622,34.914,75.256,57.152l11.73,10.189l11.749-10.173c28.979-25.074,56.538-44.701,80.842-62.019
		C456.967,317.383,503.157,284.5,503.157,216.703L503.157,216.703z M359.72,270.492H323.86v35.859h-35.859v-35.859h-35.859v-35.859
		h35.859v-35.859h35.859v35.859h35.859V270.492z M590.415,253.996c-36.578,0-46.02,169.973-46.738,173.561
		c-3.642,24.905-21.187,61.773-50.816,83.973l-77.66,56.387l-21.501-28.715l77.66-56.37c30.764-23.064,44.785-62.448,6.337-62.448
		c-34.435,0-98.802,39.867-117.884,55.683c-22.781,18.891-35.961,46.949-35.953,76.543V702h107.578
		c0-17.214,9.323-35.98,23.666-53.91c15.062-19.723,36.577-39.804,58.809-60.243c42.314-39.804,86.183-80.684,91.921-122.279
		c3.407-27.941,6.236-75.864,6.095-118.575C611.772,299.162,607.721,255.541,590.415,253.996z M247.838,472.739
		c-50.563-34.785-88.93-52.356-113.673-52.356c-38.449,0-24.427,39.384,6.336,62.448l77.661,56.37l-21.501,28.715L119,511.529
		c-29.632-22.199-47.177-59.067-50.819-83.973c-0.718-3.588-10.16-173.561-46.738-173.561C1.363,255.789-0.789,314.239,0.288,370.18
		c0.718,40.879,3.944,80.683,5.736,95.387c5.739,41.596,49.606,82.477,91.921,122.279c22.232,20.439,43.747,40.521,58.809,60.243
		c14.343,17.93,23.666,36.696,23.666,53.91h107.578V553.324C288.001,521.648,273.131,491.81,247.838,472.739L247.838,472.739z"/>
</g>
</svg>
