<?xml version="1.0" encoding="utf-8"?>
<!-- Generator: Adobe Illustrator 16.0.0, SVG Export Plug-In . SVG Version: 6.00 Build 0)  -->
<!DOCTYPE svg PUBLIC "-//W3C//DTD SVG 1.1//EN" "http://www.w3.org/Graphics/SVG/1.1/DTD/svg11.dtd">
<svg version="1.1" id="Layer_1" xmlns="http://www.w3.org/2000/svg" xmlns:xlink="http://www.w3.org/1999/xlink" x="0px" y="0px"
	 width="446px" height="428px" viewBox="0 0 446 428" enable-background="new 0 0 446 428" xml:space="preserve">
<g>
	<path fill="#EBC16F" d="M363.53,124.333c0,0-7,64-12,67c0,0-13,13-8-41c0,0,5-79-3-86c0,0-29-34-48,0c0,0-2,104-13,107s-7-3-6-24
		l-3-107c0,0-19-40-54,0c0,0,5,121,6,121c0,0-9,16-12-10c0,0-4-113-37-101c0,0-25.53-1-26,20c-1.13,50.54,23,203,13,210
		c0,0-65-98-93-58c0,0-26,12,35,74c0,0,89,107,117,107h105c0,0,47-17,56-60c0,0,15.47-86.667,29-217
		C410.719,114.884,383.53,82.333,363.53,124.333z M198.118,265.556c0,0,78-100,154,0
		C352.118,265.556,273.118,376.556,198.118,265.556z"/>
	<path fill="#EBC16F" d="M253.386,243.612c0.597-0.131,1.195-0.263,1.795-0.395l1.837-0.316c1.225-0.226,2.455-0.452,3.69-0.68
		c1.234-0.234,2.489-0.353,3.739-0.536c1.253-0.154,2.505-0.367,3.768-0.478c1.264-0.101,2.529-0.201,3.796-0.303l1.901-0.153
		c0.634-0.039,1.27-0.034,1.904-0.054c2.539-0.068,5.08-0.223,7.606-0.08c0.199,0.005,0.396,0.01,0.596,0.015
		c-2.29-0.133-4.678-0.211-7.134-0.211c-11,0-20.837,1.543-29.342,4.553c0.762-0.205,1.524-0.41,2.282-0.582
		C251.004,244.134,252.191,243.874,253.386,243.612z"/>
	<path fill="#EBC16F" d="M201.7,263.489c0.78-0.422,1.676-0.907,2.68-1.451c0.989-0.563,2.121-1.124,3.35-1.736
		c1.237-0.597,2.523-1.326,3.958-1.997c2.879-1.322,6.073-2.893,9.669-4.358c3.534-1.598,7.51-2.959,11.638-4.544
		c1.023-0.419,2.106-0.719,3.188-1.059c1.083-0.334,2.18-0.673,3.287-1.015c0.053-0.016,0.105-0.034,0.158-0.05l0.25-5.364
		c-0.667,0.251-1.341,0.5-1.997,0.753c-1.117,0.429-2.222,0.853-3.313,1.271c-1.088,0.424-2.177,0.807-3.201,1.307
		c-2.068,0.949-4.088,1.847-6.02,2.76c-0.482,0.228-0.961,0.453-1.436,0.678c-0.464,0.247-0.923,0.492-1.377,0.735
		c-0.907,0.488-1.797,0.968-2.669,1.438c-3.526,1.794-6.572,3.779-9.3,5.457c-1.356,0.853-2.587,1.719-3.728,2.506
		c-1.14,0.789-2.186,1.511-3.097,2.217c-1.853,1.357-3.254,2.5-4.197,3.291c-0.479,0.385-0.831,0.696-1.066,0.908
		c-0.238,0.211-0.36,0.319-0.36,0.319s0.557-0.349,1.627-0.949C200.276,264.303,200.931,263.929,201.7,263.489z"/>
	<path fill="#EBC16F" d="M295.438,235.688c-1.292-0.2-2.604-0.299-3.914-0.453c-1.313-0.135-2.629-0.298-3.953-0.408
		c-0.3-0.012-0.603-0.023-0.902-0.035c3.406,0.253,6.56,0.612,9.359,1.007C295.83,235.761,295.635,235.725,295.438,235.688z"/>
	<path fill="#EBC16F" d="M346.953,260.521c-0.417-0.397-0.856-0.816-1.318-1.256c-0.466-0.433-0.997-0.833-1.528-1.279
		c-1.067-0.888-2.251-1.813-3.505-2.822c-0.63-0.503-1.279-1.022-1.948-1.557c-0.691-0.503-1.428-0.983-2.172-1.498
		c-1.508-1.005-3.094-2.062-4.749-3.164c-3.46-1.946-7.164-4.228-11.418-5.951c-1.048-0.467-2.11-0.94-3.187-1.42
		c-1.095-0.431-2.226-0.81-3.358-1.224c-0.765-0.277-1.547-0.545-2.326-0.815v5.284c0.262,0.074,0.527,0.157,0.788,0.229
		c1.104,0.321,2.207,0.607,3.279,0.947c1.055,0.389,2.098,0.772,3.126,1.151c1.031,0.378,2.048,0.752,3.05,1.12
		c1.021,0.328,1.938,0.853,2.897,1.242c1.888,0.848,3.743,1.622,5.482,2.451c1.702,0.909,3.334,1.781,4.886,2.61
		c0.78,0.412,1.554,0.794,2.284,1.202c0.71,0.441,1.399,0.87,2.068,1.285c1.342,0.827,2.587,1.622,3.767,2.323
		c0.582,0.361,1.162,0.68,1.679,1.036c0.512,0.364,1,0.711,1.463,1.039c1.848,1.326,3.341,2.331,4.346,3.036
		c1.018,0.692,1.56,1.063,1.56,1.063s-0.464-0.461-1.334-1.324C349.902,263.38,348.628,262.102,346.953,260.521z"/>
	<path fill="#EBC16F" d="M303.05,237.173c1.233,0.324,2.459,0.646,3.674,0.964c1.207,0.344,2.431,0.583,3.592,1.004
		c0.382,0.129,0.75,0.264,1.128,0.395v-0.566l-2.207-0.605c-0.349-0.096-5.424-1.467-13.209-2.566
		c1.087,0.203,2.172,0.407,3.248,0.608C300.542,236.669,301.819,236.827,303.05,237.173z"/>
	<path fill="#EBC16F" d="M242.19,241.061l0.867-0.268c0.579-0.18,1.161-0.359,1.745-0.54c1.177-0.354,2.328-0.743,3.554-1.077
		c1.235-0.324,2.48-0.651,3.732-0.98c2.504-0.723,5.057-1.14,7.633-1.677c1.286-0.261,2.6-0.405,3.906-0.614
		c1.311-0.181,2.618-0.418,3.942-0.552c1.326-0.125,2.654-0.249,3.984-0.374l1.996-0.186c0.667-0.05,1.337-0.056,2.006-0.086
		c2.677-0.067,5.353-0.196,8.021-0.035c1.032,0.04,2.062,0.08,3.09,0.119c-3.076-0.228-6.358-0.369-9.783-0.369
		c-13.374,0-25.233,2.147-35.249,6.384l-1.74,0.735l-0.018,0.375c0.468-0.176,0.926-0.356,1.398-0.528
		C241.586,241.278,241.8,241.187,242.19,241.061z"/>
	<path fill="#EBC16F" d="M305.441,243.263c-1.163-0.256-2.335-0.514-3.517-0.773c-1.175-0.282-2.397-0.379-3.604-0.579
		c-1.211-0.178-2.43-0.355-3.654-0.534c-1.227-0.163-2.472-0.229-3.714-0.35c-1.245-0.101-2.492-0.232-3.746-0.312
		c-1.06-0.027-2.124-0.054-3.188-0.082c9.777,0.568,17.742,2.146,21.425,2.982v35.319c-9.086,12.701-18.93,19.14-29.268,19.139
		c-0.001,0-0.003,0-0.003,0c-16.035-0.002-29.104-15.422-32.015-19.132l1.554-33.314c0.598-0.231,1.22-0.436,1.831-0.652
		c-0.43,0.116-0.86,0.233-1.285,0.343c-0.591,0.157-1.18,0.313-1.767,0.47l-0.877,0.232l-0.796,0.254
		c-1.069,0.353-2.134,0.681-3.19,1.006l-1.563,33.507l0.603,0.845c0.654,0.916,16.255,22.44,37.504,22.442c0.001,0,0.002,0,0.004,0
		c12.618,0,24.302-7.559,34.727-22.466l0.541-0.773v-36.015c-0.848-0.242-1.696-0.484-2.552-0.744
		C307.776,243.718,306.599,243.542,305.441,243.263z"/>
	<path fill="#EBC16F" d="M242.818,246.273l0.796-0.254l0.877-0.232c0.587-0.156,1.176-0.313,1.767-0.47
		c0.425-0.109,0.855-0.227,1.285-0.343c8.505-3.01,18.342-4.553,29.342-4.553c2.456,0,4.844,0.078,7.134,0.211
		c1.063,0.027,2.128,0.054,3.188,0.082c1.254,0.079,2.501,0.211,3.746,0.312c1.242,0.121,2.487,0.187,3.714,0.35
		c1.225,0.179,2.443,0.356,3.654,0.534c1.207,0.2,2.43,0.297,3.604,0.579c1.182,0.26,2.354,0.518,3.517,0.773
		c1.157,0.279,2.335,0.455,3.45,0.813c0.855,0.26,1.704,0.502,2.552,0.744v-5.284c-0.378-0.131-0.746-0.266-1.128-0.395
		c-1.161-0.421-2.385-0.66-3.592-1.004c-1.215-0.318-2.44-0.64-3.674-0.964c-1.23-0.346-2.508-0.504-3.774-0.767
		c-1.076-0.202-2.161-0.405-3.248-0.608c-2.8-0.395-5.953-0.754-9.359-1.007c-1.028-0.04-2.058-0.079-3.09-0.119
		c-2.669-0.161-5.345-0.032-8.021,0.035c-0.669,0.03-1.339,0.036-2.006,0.086l-1.996,0.186c-1.33,0.125-2.658,0.249-3.984,0.374
		c-1.324,0.134-2.632,0.371-3.942,0.552c-1.307,0.209-2.62,0.354-3.906,0.614c-2.576,0.537-5.129,0.954-7.633,1.677
		c-1.252,0.329-2.497,0.656-3.732,0.98c-1.226,0.334-2.377,0.723-3.554,1.077c-0.584,0.181-1.166,0.36-1.745,0.54l-0.867,0.268
		c-0.391,0.126-0.604,0.218-0.914,0.327c-0.473,0.172-0.931,0.352-1.398,0.528l-0.25,5.364
		C240.685,246.954,241.749,246.626,242.818,246.273z"/>
	<circle fill="#EBC16F" cx="275.118" cy="265.556" r="14.333"/>
</g>
<g>
	<g>
		<g>
			<path fill="#EBC16F" d="M40.667,104.856L21.811,86l18.856-18.856L59.523,86L40.667,104.856z M27.468,86l13.199,13.199L53.866,86
				L40.667,72.801L27.468,86z"/>
		</g>
		<g>
			<path fill="#EBC16F" d="M52.923,89.771c-2.079-2.079-2.079-5.462,0-7.542c2.079-2.079,5.463-2.079,7.542,0
				c2.079,2.08,2.079,5.463,0,7.542C58.386,91.85,55.002,91.85,52.923,89.771z M57.637,85.057c-0.52-0.52-1.365-0.52-1.885,0
				s-0.52,1.366,0,1.885s1.365,0.52,1.885,0C58.157,86.423,58.157,85.577,57.637,85.057z"/>
		</g>
		<g>
			<path fill="#EBC16F" d="M36.896,105.798c-2.079-2.079-2.079-5.463,0-7.542c2.08-2.079,5.463-2.079,7.542,0
				c2.079,2.079,2.079,5.463,0,7.542C42.358,107.877,38.975,107.877,36.896,105.798z M41.609,101.085c-0.52-0.52-1.366-0.52-1.885,0
				s-0.52,1.365,0,1.885c0.52,0.52,1.366,0.52,1.885,0C42.129,102.45,42.129,101.604,41.609,101.085z"/>
		</g>
		<g>
			<path fill="#EBC16F" d="M20.868,89.771c-2.079-2.079-2.079-5.462,0-7.542c2.079-2.079,5.463-2.079,7.542,0
				c2.079,2.08,2.079,5.463,0,7.542C26.331,91.85,22.947,91.85,20.868,89.771z M25.582,85.057c-0.52-0.52-1.365-0.52-1.885,0
				c-0.52,0.52-0.52,1.366,0,1.885c0.52,0.52,1.366,0.52,1.885,0S26.101,85.577,25.582,85.057z"/>
		</g>
		<g>
			<path fill="#EBC16F" d="M36.896,73.743c-2.079-2.079-2.079-5.463,0-7.542c2.08-2.079,5.463-2.079,7.542,0
				c2.079,2.079,2.079,5.463,0,7.542C42.358,75.822,38.975,75.822,36.896,73.743z M41.609,69.029c-0.52-0.52-1.366-0.52-1.885,0
				c-0.52,0.52-0.52,1.366,0,1.885c0.52,0.52,1.366,0.52,1.885,0C42.129,70.395,42.129,69.549,41.609,69.029z"/>
		</g>
	</g>
	<g>
		<g>
			<path fill="#EBC16F" d="M40.667,171.641l-18.856-18.856l18.856-18.856l18.856,18.856L40.667,171.641z M27.468,152.785
				l13.199,13.199l13.199-13.199l-13.199-13.199L27.468,152.785z"/>
		</g>
		<g>
			<path fill="#EBC16F" d="M52.923,156.555c-2.079-2.079-2.079-5.462,0-7.542c2.079-2.079,5.463-2.079,7.542,0
				c2.079,2.08,2.079,5.463,0,7.542C58.386,158.635,55.002,158.635,52.923,156.555z M57.637,151.842c-0.52-0.52-1.365-0.52-1.885,0
				s-0.52,1.366,0,1.885s1.365,0.52,1.885,0C58.157,153.208,58.157,152.361,57.637,151.842z"/>
		</g>
		<g>
			<path fill="#EBC16F" d="M36.896,172.583c-2.079-2.079-2.079-5.463,0-7.542c2.08-2.079,5.463-2.079,7.542,0
				c2.079,2.079,2.079,5.463,0,7.542C42.358,174.662,38.975,174.662,36.896,172.583z M41.609,167.87c-0.52-0.52-1.366-0.52-1.885,0
				s-0.52,1.365,0,1.885c0.52,0.52,1.366,0.52,1.885,0C42.129,169.235,42.129,168.389,41.609,167.87z"/>
		</g>
		<g>
			<path fill="#EBC16F" d="M20.868,156.555c-2.079-2.079-2.079-5.462,0-7.542c2.079-2.079,5.463-2.079,7.542,0
				c2.079,2.08,2.079,5.463,0,7.542C26.331,158.635,22.947,158.635,20.868,156.555z M25.582,151.842c-0.52-0.52-1.365-0.52-1.885,0
				c-0.52,0.52-0.52,1.366,0,1.885c0.52,0.52,1.366,0.52,1.885,0S26.101,152.361,25.582,151.842z"/>
		</g>
		<g>
			<path fill="#EBC16F" d="M36.896,140.528c-2.079-2.079-2.079-5.463,0-7.542c2.08-2.079,5.463-2.079,7.542,0
				c2.079,2.079,2.079,5.463,0,7.542C42.358,142.607,38.975,142.607,36.896,140.528z M41.609,135.814c-0.52-0.52-1.366-0.52-1.885,0
				c-0.52,0.52-0.52,1.366,0,1.885c0.52,0.52,1.366,0.52,1.885,0C42.129,137.18,42.129,136.334,41.609,135.814z"/>
		</g>
	</g>
	<g>
		<g>
			<path fill="#EBC16F" d="M95.582,145.07l-18.856-18.856l18.856-18.856l18.856,18.856L95.582,145.07z M82.382,126.214
				l13.199,13.199l13.199-13.199l-13.199-13.199L82.382,126.214z"/>
		</g>
		<g>
			<path fill="#EBC16F" d="M107.838,129.984c-2.079-2.079-2.079-5.462,0-7.542c2.079-2.079,5.463-2.079,7.542,0
				c2.079,2.08,2.079,5.463,0,7.542C113.301,132.064,109.917,132.064,107.838,129.984z M112.551,125.271
				c-0.52-0.52-1.365-0.52-1.885,0s-0.52,1.366,0,1.885s1.365,0.52,1.885,0C113.071,126.637,113.071,125.791,112.551,125.271z"/>
		</g>
		<g>
			<path fill="#EBC16F" d="M91.81,146.012c-2.079-2.079-2.079-5.463,0-7.542c2.08-2.079,5.463-2.079,7.542,0
				c2.079,2.079,2.079,5.463,0,7.542C97.273,148.091,93.89,148.091,91.81,146.012z M96.524,141.299c-0.52-0.52-1.366-0.52-1.885,0
				s-0.52,1.365,0,1.885c0.52,0.52,1.366,0.52,1.885,0C97.043,142.664,97.043,141.818,96.524,141.299z"/>
		</g>
		<g>
			<path fill="#EBC16F" d="M75.783,129.984c-2.079-2.079-2.079-5.462,0-7.542c2.079-2.079,5.463-2.079,7.542,0
				c2.079,2.08,2.079,5.463,0,7.542C81.246,132.064,77.862,132.064,75.783,129.984z M80.496,125.271c-0.52-0.52-1.365-0.52-1.885,0
				c-0.52,0.52-0.52,1.366,0,1.885c0.52,0.52,1.366,0.52,1.885,0S81.016,125.791,80.496,125.271z"/>
		</g>
		<g>
			<path fill="#EBC16F" d="M91.81,113.957c-2.079-2.079-2.079-5.463,0-7.542c2.08-2.079,5.463-2.079,7.542,0
				c2.079,2.079,2.079,5.463,0,7.542C97.273,116.036,93.89,116.036,91.81,113.957z M96.524,109.243c-0.52-0.52-1.366-0.52-1.885,0
				c-0.52,0.52-0.52,1.366,0,1.885c0.52,0.52,1.366,0.52,1.885,0C97.043,110.609,97.043,109.763,96.524,109.243z"/>
		</g>
	</g>
</g>
</svg>
