<?xml version="1.0" encoding="utf-8"?>
<!-- Generator: Adobe Illustrator 16.0.0, SVG Export Plug-In . SVG Version: 6.00 Build 0)  -->
<!DOCTYPE svg PUBLIC "-//W3C//DTD SVG 1.1//EN" "http://www.w3.org/Graphics/SVG/1.1/DTD/svg11.dtd">
<svg version="1.1" id="Layer_1" xmlns:svgjs="http://svgjs.com/svgjs"
	 xmlns="http://www.w3.org/2000/svg" xmlns:xlink="http://www.w3.org/1999/xlink" x="0px" y="0px" width="612px" height="792px"
	 viewBox="0 0 612 792" enable-background="new 0 0 612 792" xml:space="preserve">
<g>
	<linearGradient id="SVGID_1_" gradientUnits="userSpaceOnUse" x1="287.2837" y1="666.3008" x2="534.2266" y2="666.3008">
		<stop  offset="0" style="stop-color:#C09034"/>
		<stop  offset="0.5419" style="stop-color:#F4D76C"/>
		<stop  offset="1" style="stop-color:#C09034"/>
	</linearGradient>
	<path fill="url(#SVGID_1_)" d="M534.204,666.976c-0.348,5.423-5.091,9.525-10.524,9.525H292.384c-2.817,0-5.1-2.283-5.1-5.1v-10.2
		c0-2.816,2.283-5.1,5.1-5.1h231.643c5.633-0.002,10.199,4.563,10.2,10.196C534.227,666.524,534.22,666.75,534.204,666.976z"/>
	<linearGradient id="SVGID_2_" gradientUnits="userSpaceOnUse" x1="113.4756" y1="649.7207" x2="515.1016" y2="649.7207">
		<stop  offset="0" style="stop-color:#C09034"/>
		<stop  offset="0.5419" style="stop-color:#F4D76C"/>
		<stop  offset="1" style="stop-color:#C09034"/>
	</linearGradient>
	<path fill="url(#SVGID_2_)" d="M515.102,607.646v17.854c0,5.634-4.567,10.2-10.2,10.2H292.384c-2.817,0-5.1-2.283-5.1-5.1
		c0-4.069,0.461-7.572-2.983-11.042c-6.552-6.506-17.417-1.708-17.417,7.608v48.755c0,17.674-15.953,29.476-32.13,25.199
		l-20.553-5.521l-19.967,5.355c-17.238,4.636-32.716-7.914-32.716-24.378v-49.455c0-5.435-4.103-10.177-9.526-10.525
		c-5.62-0.373-10.479,3.881-10.852,9.501c-0.015,0.226-0.022,0.451-0.022,0.678v3.825c0,2.816-2.283,5.1-5.1,5.1h-2.861
		c-10.286,0-19.148-7.886-19.657-18.158c-0.544-10.982,8.235-20.09,19.101-20.092c277.959-0.051,351.233,0.113,372.24-0.004
		c5.633-0.034,10.228,4.506,10.261,10.139C515.101,607.605,515.102,607.626,515.102,607.646z"/>
	<linearGradient id="SVGID_3_" gradientUnits="userSpaceOnUse" x1="72.6753" y1="383.7822" x2="425.6113" y2="383.7822">
		<stop  offset="0" style="stop-color:#C09034"/>
		<stop  offset="0.5419" style="stop-color:#F4D76C"/>
		<stop  offset="1" style="stop-color:#C09034"/>
	</linearGradient>
	<path fill="url(#SVGID_3_)" d="M136.017,656.102H132.6c-22.191,0-40.176-18.395-39.507-40.732
		c0.553-18.446,14.039-33.443,31.444-37.326c4.693-1.047,8.063-5.157,8.063-9.966V101.25c0-6.538-6.048-11.308-12.446-9.957
		c-27.123,5.73-47.479,29.803-47.479,58.631v466.651c0,33.095,26.83,59.925,59.925,59.925h3.417c2.817,0,5.1-2.283,5.1-5.1v-10.2
		C141.117,658.385,138.834,656.102,136.017,656.102z M376.595,329.151l-16.962,12.324c-2.803,2.036-2.803,6.216,0,8.252
		l24.271,17.633c3.385,2.46,6.369,0.82,7.494,0c1.128-0.819,3.607-3.152,2.315-7.127l-9.271-28.533
		C383.373,328.406,379.397,327.115,376.595,329.151L376.595,329.151z M357.025,258.725h-40.851c-2.209,0-4.167,1.423-4.85,3.524
		L298.7,301.102c-0.684,2.102,0.064,4.403,1.853,5.702l33.051,24.012c1.787,1.299,4.208,1.299,5.995,0l33.05-24.012
		c1.788-1.298,2.536-3.6,1.853-5.702l-12.625-38.853C361.193,260.147,359.234,258.725,357.025,258.725L357.025,258.725z
		 M384.35,265.401l6.479,19.941c1.071,3.295,5.045,4.586,7.848,2.55l24.271-17.635c3.382-2.457,2.745-5.802,2.316-7.127
		c-0.432-1.325-1.884-4.405-6.064-4.405h-30.001C385.735,258.725,383.278,262.105,384.35,265.401z M279.487,360.234
		c-1.292,3.976,1.19,6.309,2.315,7.127c1.127,0.82,4.111,2.461,7.495,0l24.271-17.633c2.803-2.036,2.804-6.215,0-8.251
		l-16.962-12.324c-2.802-2.036-6.778-0.746-7.848,2.55L279.487,360.234z M288.851,265.401c1.071-3.294-1.386-6.676-4.85-6.676H254
		c-4.181,0-5.633,3.082-6.064,4.405c-0.43,1.325-1.066,4.67,2.315,7.127l24.271,17.635c2.803,2.036,6.778,0.746,7.848-2.55
		L288.851,265.401z"/>
	<linearGradient id="SVGID_4_" gradientUnits="userSpaceOnUse" x1="153.0005" y1="333.5254" x2="539.3262" y2="333.5254">
		<stop  offset="0" style="stop-color:#C09034"/>
		<stop  offset="0.5419" style="stop-color:#F4D76C"/>
		<stop  offset="1" style="stop-color:#C09034"/>
	</linearGradient>
	<path fill="url(#SVGID_4_)" d="M508.727,90H163.2c-5.633,0-10.2,4.567-10.2,10.2v466.65c0,5.634,4.566,10.2,10.2,10.2h345.526
		c16.899,0,30.6-13.699,30.6-30.6V120.6C539.326,103.7,525.626,90,508.727,90z M366.008,504.376H221.851
		c-5.633,0-10.2-4.566-10.2-10.2c0-5.633,4.567-10.2,10.2-10.2h144.157c5.633,0,10.199,4.567,10.199,10.2
		C376.207,499.81,371.641,504.376,366.008,504.376z M451.351,504.376h-24.966c-5.633,0-10.199-4.566-10.199-10.2
		c0-5.633,4.566-10.2,10.199-10.2h24.966c5.634,0,10.2,4.567,10.2,10.2C461.551,499.81,456.984,504.376,451.351,504.376z
		 M336.601,443.176c-83.662,0-151.725-68.063-151.725-151.726c0-83.662,68.062-151.725,151.725-151.725
		s151.726,68.063,151.726,151.725C488.326,375.112,420.263,443.176,336.601,443.176z"/>
	<linearGradient id="SVGID_5_" gradientUnits="userSpaceOnUse" x1="321.0137" y1="218.5171" x2="352.1875" y2="218.5171">
		<stop  offset="0" style="stop-color:#C09034"/>
		<stop  offset="0.5419" style="stop-color:#F4D76C"/>
		<stop  offset="1" style="stop-color:#C09034"/>
	</linearGradient>
	<path fill="url(#SVGID_5_)" d="M342.663,203.116c-1.293-3.976-4.67-4.405-6.063-4.405s-4.77,0.43-6.063,4.405l-9.271,28.532
		c-1.071,3.295,1.386,6.676,4.85,6.676h20.967c3.464,0,5.921-3.381,4.85-6.676L342.663,203.116z"/>
	<linearGradient id="SVGID_6_" gradientUnits="userSpaceOnUse" x1="205.2754" y1="291.4502" x2="467.9258" y2="291.4502">
		<stop  offset="0" style="stop-color:#C09034"/>
		<stop  offset="0.5419" style="stop-color:#F4D76C"/>
		<stop  offset="1" style="stop-color:#C09034"/>
	</linearGradient>
	<path fill="url(#SVGID_6_)" d="M336.601,160.125c-72.413,0-131.325,58.913-131.325,131.325
		c0,72.413,58.913,131.325,131.325,131.325c72.413,0,131.325-58.913,131.325-131.325
		C467.926,219.038,409.014,160.125,336.601,160.125z M434.94,286.761l-35.313,25.657l13.488,41.513
		c8.018,24.674-20.223,45.176-41.202,29.936l-35.313-25.658l-35.313,25.657c-20.965,15.233-49.224-5.248-41.202-29.936
		l13.488-41.513l-35.313-25.657c-20.969-15.232-10.22-48.438,15.739-48.438h43.648l13.488-41.513
		c8.01-24.649,42.906-24.688,50.928,0l13.488,41.513h43.648C445.119,238.325,455.942,271.504,434.94,286.761z"/>
</g>
</svg>
