<?xml version="1.0" encoding="utf-8"?>
<!-- Generator: Adobe Illustrator 16.0.0, SVG Export Plug-In . SVG Version: 6.00 Build 0)  -->
<!DOCTYPE svg PUBLIC "-//W3C//DTD SVG 1.1//EN" "http://www.w3.org/Graphics/SVG/1.1/DTD/svg11.dtd">
<svg version="1.1" id="Layer_1" xmlns:svgjs="http://svgjs.com/svgjs"
	 xmlns="http://www.w3.org/2000/svg" xmlns:xlink="http://www.w3.org/1999/xlink" x="0px" y="0px" width="612px" height="792px"
	 viewBox="0 0 612 792" enable-background="new 0 0 612 792" xml:space="preserve">
<g>
	<linearGradient id="SVGID_1_" gradientUnits="userSpaceOnUse" x1="0" y1="396" x2="612" y2="396">
		<stop  offset="0" style="stop-color:#C09034"/>
		<stop  offset="0.5419" style="stop-color:#F4D76C"/>
		<stop  offset="1" style="stop-color:#C09034"/>
	</linearGradient>
	<path fill="url(#SVGID_1_)" d="M521.523,180.477c-27.963-27.979-60.565-49.954-96.88-65.311l-13.973,33.023
		c32.043,13.552,60.811,32.936,85.499,57.642c24.707,24.688,44.089,53.456,57.641,85.499l33.023-13.972
		C571.478,241.042,549.504,208.44,521.523,180.477z M187.355,115.165c-36.314,15.356-68.917,37.33-96.88,65.311
		c-27.98,27.963-49.955,60.565-65.311,96.88l33.023,13.972c13.554-32.042,32.936-60.809,57.642-85.499
		c24.688-24.706,53.457-44.089,85.498-57.641L187.355,115.165z M115.831,586.17c-24.707-24.688-44.089-53.456-57.642-85.499
		l-33.023,13.973c15.356,36.314,37.33,68.917,65.311,96.88c27.963,27.979,60.565,49.954,96.88,65.311l13.972-33.023
		C169.286,630.259,140.519,610.875,115.831,586.17L115.831,586.17z M553.813,500.672c-13.554,32.042-32.936,60.81-57.642,85.499
		c-24.688,24.706-53.457,44.089-85.499,57.642l13.973,33.022c36.314-15.356,68.917-37.329,96.88-65.311
		c27.979-27.963,49.954-60.565,65.311-96.88L553.813,500.672L553.813,500.672z M387.647,314.353L306,90l-81.647,224.353L0,396
		l224.353,81.647L306,702l81.647-224.353L612,396L387.647,314.353z M306,449.789c-29.661,0-53.789-24.129-53.789-53.789
		c0-29.661,24.128-53.789,53.789-53.789c29.66,0,53.789,24.128,53.789,53.789C359.789,425.66,335.66,449.789,306,449.789z"/>
	<linearGradient id="SVGID_2_" gradientUnits="userSpaceOnUse" x1="123.043" y1="396" x2="488.957" y2="396">
		<stop  offset="0" style="stop-color:#C09034"/>
		<stop  offset="0.5419" style="stop-color:#F4D76C"/>
		<stop  offset="1" style="stop-color:#C09034"/>
	</linearGradient>
	<path fill="url(#SVGID_2_)" d="M123.043,213.043l31.29,89.906l42.285-16.331l16.331-42.285L123.043,213.043z M196.618,505.382
		l-42.285-16.33l-31.29,89.905l89.905-31.292L196.618,505.382z M457.667,489.052l-42.285,16.33l-16.33,42.283l89.905,31.292
		L457.667,489.052z M399.052,244.333l16.33,42.285l42.285,16.331l31.29-89.906L399.052,244.333z"/>
</g>
</svg>
