<?xml version="1.0" encoding="utf-8"?>
<!-- Generator: Adobe Illustrator 16.0.0, SVG Export Plug-In . SVG Version: 6.00 Build 0)  -->
<!DOCTYPE svg PUBLIC "-//W3C//DTD SVG 1.1//EN" "http://www.w3.org/Graphics/SVG/1.1/DTD/svg11.dtd">
<svg version="1.1" id="Layer_1" xmlns="http://www.w3.org/2000/svg" xmlns:xlink="http://www.w3.org/1999/xlink" x="0px" y="0px"
	 width="446px" height="428px" viewBox="0 0 446 428" enable-background="new 0 0 446 428" xml:space="preserve">
<g>
	<linearGradient id="SVGID_1_" gradientUnits="userSpaceOnUse" x1="62.0239" y1="212.9443" x2="409.5684" y2="212.9443">
		<stop  offset="0" style="stop-color:#C09034"/>
		<stop  offset="0.5419" style="stop-color:#F4D76C"/>
		<stop  offset="1" style="stop-color:#C09034"/>
	</linearGradient>
	<path fill="url(#SVGID_1_)" d="M363.53,124.333c0,0-7,64-12,67c0,0-13,13-8-41c0,0,5-79-3-86c0,0-29-34-48.001,0c0,0-2,104-13,107
		s-7-3-6-24l-3-107c0,0-19-40-54,0c0,0,5,121,6,121c0,0-9,16-12-10c0,0-4-113-37-101c0,0-25.53-1-26,20c-1.13,50.54,23,203,13,210
		c0,0-65-98-93-58c0,0-26,12,35,74c0,0,89,107,117,107h105c0,0,47-17,56-60c0,0,15.47-86.667,29-217
		C410.719,114.884,383.53,82.333,363.53,124.333z M198.118,265.557c0,0,78-100,154,0
		C352.118,265.557,273.118,376.557,198.118,265.557z"/>
	<linearGradient id="SVGID_2_" gradientUnits="userSpaceOnUse" x1="247.542" y1="242.6973" x2="284.0176" y2="242.6973">
		<stop  offset="0" style="stop-color:#C09034"/>
		<stop  offset="0.5419" style="stop-color:#F4D76C"/>
		<stop  offset="1" style="stop-color:#C09034"/>
	</linearGradient>
	<path fill="url(#SVGID_2_)" d="M253.387,243.611c0.596-0.131,1.194-0.262,1.795-0.395l1.836-0.316
		c1.226-0.226,2.455-0.451,3.69-0.68c1.233-0.234,2.489-0.353,3.739-0.535c1.253-0.154,2.505-0.367,3.768-0.479
		c1.264-0.102,2.529-0.201,3.797-0.303l1.9-0.153c0.634-0.039,1.27-0.034,1.904-0.054c2.539-0.068,5.08-0.223,7.605-0.08
		c0.199,0.005,0.396,0.01,0.596,0.015c-2.289-0.133-4.678-0.211-7.134-0.211c-11,0-20.837,1.543-29.342,4.554
		c0.763-0.205,1.524-0.41,2.282-0.582C251.004,244.134,252.191,243.874,253.387,243.611z"/>
	<linearGradient id="SVGID_3_" gradientUnits="userSpaceOnUse" x1="198.1172" y1="253.7344" x2="239.8779" y2="253.7344">
		<stop  offset="0" style="stop-color:#C09034"/>
		<stop  offset="0.5419" style="stop-color:#F4D76C"/>
		<stop  offset="1" style="stop-color:#C09034"/>
	</linearGradient>
	<path fill="url(#SVGID_3_)" d="M201.7,263.489c0.78-0.423,1.676-0.907,2.68-1.451c0.989-0.563,2.121-1.124,3.35-1.736
		c1.237-0.597,2.523-1.325,3.958-1.997c2.879-1.322,6.073-2.893,9.669-4.357c3.534-1.598,7.51-2.959,11.638-4.545
		c1.022-0.418,2.106-0.719,3.188-1.059c1.082-0.334,2.18-0.673,3.287-1.015c0.053-0.017,0.104-0.034,0.157-0.05l0.25-5.364
		c-0.667,0.251-1.341,0.5-1.997,0.753c-1.117,0.43-2.222,0.854-3.313,1.271c-1.088,0.424-2.178,0.807-3.201,1.307
		c-2.068,0.949-4.088,1.847-6.02,2.76c-0.482,0.229-0.961,0.453-1.437,0.678c-0.464,0.248-0.923,0.492-1.377,0.735
		c-0.907,0.488-1.797,0.968-2.669,1.438c-3.526,1.793-6.572,3.778-9.3,5.457c-1.356,0.853-2.587,1.719-3.728,2.506
		c-1.14,0.789-2.186,1.511-3.097,2.217c-1.853,1.357-3.254,2.5-4.197,3.291c-0.479,0.385-0.831,0.695-1.066,0.908
		c-0.238,0.211-0.36,0.318-0.36,0.318s0.557-0.349,1.627-0.949C200.276,264.303,200.931,263.929,201.7,263.489z"/>
	<linearGradient id="SVGID_4_" gradientUnits="userSpaceOnUse" x1="286.6689" y1="235.2949" x2="296.0273" y2="235.2949">
		<stop  offset="0" style="stop-color:#C09034"/>
		<stop  offset="0.5419" style="stop-color:#F4D76C"/>
		<stop  offset="1" style="stop-color:#C09034"/>
	</linearGradient>
	<path fill="url(#SVGID_4_)" d="M295.438,235.688c-1.291-0.199-2.604-0.299-3.914-0.453c-1.313-0.135-2.629-0.297-3.953-0.407
		c-0.299-0.013-0.603-0.022-0.901-0.035c3.406,0.253,6.56,0.612,9.358,1.007C295.83,235.761,295.635,235.725,295.438,235.688z"/>
	<linearGradient id="SVGID_5_" gradientUnits="userSpaceOnUse" x1="311.4443" y1="252.5439" x2="352.1191" y2="252.5439">
		<stop  offset="0" style="stop-color:#C09034"/>
		<stop  offset="0.5419" style="stop-color:#F4D76C"/>
		<stop  offset="1" style="stop-color:#C09034"/>
	</linearGradient>
	<path fill="url(#SVGID_5_)" d="M346.953,260.521c-0.417-0.397-0.856-0.816-1.318-1.256c-0.466-0.434-0.997-0.834-1.527-1.279
		c-1.067-0.889-2.251-1.813-3.506-2.822c-0.63-0.503-1.278-1.021-1.947-1.557c-0.691-0.504-1.429-0.983-2.172-1.498
		c-1.509-1.006-3.095-2.063-4.749-3.164c-3.46-1.946-7.164-4.229-11.418-5.951c-1.049-0.467-2.11-0.94-3.188-1.42
		c-1.095-0.432-2.226-0.811-3.358-1.225c-0.765-0.276-1.547-0.545-2.325-0.814v5.283c0.262,0.074,0.526,0.158,0.788,0.229
		c1.104,0.321,2.207,0.606,3.278,0.947c1.056,0.389,2.099,0.772,3.126,1.151c1.031,0.377,2.048,0.752,3.05,1.119
		c1.021,0.328,1.938,0.854,2.897,1.242c1.888,0.848,3.743,1.622,5.482,2.451c1.701,0.909,3.334,1.781,4.886,2.609
		c0.78,0.412,1.554,0.795,2.284,1.203c0.71,0.44,1.398,0.869,2.067,1.285c1.342,0.826,2.587,1.621,3.768,2.322
		c0.582,0.361,1.162,0.68,1.679,1.036c0.512,0.364,1,0.711,1.463,1.039c1.848,1.325,3.341,2.331,4.346,3.036
		c1.019,0.691,1.561,1.063,1.561,1.063s-0.464-0.461-1.334-1.324C349.902,263.38,348.628,262.102,346.953,260.521z"/>
	<linearGradient id="SVGID_6_" gradientUnits="userSpaceOnUse" x1="296.0273" y1="237.668" x2="311.4443" y2="237.668">
		<stop  offset="0" style="stop-color:#C09034"/>
		<stop  offset="0.5419" style="stop-color:#F4D76C"/>
		<stop  offset="1" style="stop-color:#C09034"/>
	</linearGradient>
	<path fill="url(#SVGID_6_)" d="M303.05,237.173c1.233,0.324,2.459,0.646,3.674,0.964c1.207,0.344,2.432,0.583,3.593,1.004
		c0.382,0.129,0.75,0.265,1.128,0.396v-0.565l-2.207-0.605c-0.35-0.096-5.425-1.467-13.21-2.566
		c1.088,0.203,2.173,0.407,3.248,0.608C300.542,236.669,301.818,236.827,303.05,237.173z"/>
	<linearGradient id="SVGID_7_" gradientUnits="userSpaceOnUse" x1="239.876" y1="238.1689" x2="286.666" y2="238.1689">
		<stop  offset="0" style="stop-color:#C09034"/>
		<stop  offset="0.5419" style="stop-color:#F4D76C"/>
		<stop  offset="1" style="stop-color:#C09034"/>
	</linearGradient>
	<path fill="url(#SVGID_7_)" d="M242.189,241.061l0.867-0.268c0.58-0.18,1.161-0.359,1.745-0.54
		c1.177-0.354,2.328-0.743,3.554-1.077c1.235-0.324,2.48-0.65,3.732-0.979c2.504-0.724,5.057-1.14,7.633-1.677
		c1.286-0.262,2.6-0.405,3.906-0.614c1.311-0.181,2.618-0.419,3.941-0.552c1.326-0.125,2.654-0.25,3.984-0.375l1.996-0.186
		c0.667-0.05,1.338-0.057,2.006-0.086c2.678-0.066,5.354-0.196,8.021-0.035c1.031,0.04,2.063,0.08,3.09,0.119
		c-3.076-0.229-6.357-0.369-9.783-0.369c-13.374,0-25.232,2.146-35.249,6.385l-1.739,0.734l-0.019,0.375
		c0.468-0.176,0.927-0.355,1.397-0.527C241.586,241.277,241.8,241.188,242.189,241.061z"/>
	<linearGradient id="SVGID_8_" gradientUnits="userSpaceOnUse" x1="238.0645" y1="272.3535" x2="311.4434" y2="272.3535">
		<stop  offset="0" style="stop-color:#C09034"/>
		<stop  offset="0.5419" style="stop-color:#F4D76C"/>
		<stop  offset="1" style="stop-color:#C09034"/>
	</linearGradient>
	<path fill="url(#SVGID_8_)" d="M305.441,243.264c-1.164-0.257-2.336-0.515-3.518-0.773c-1.175-0.282-2.396-0.379-3.604-0.579
		c-1.211-0.179-2.43-0.354-3.654-0.534c-1.227-0.163-2.473-0.229-3.714-0.35c-1.245-0.102-2.492-0.232-3.746-0.313
		c-1.06-0.027-2.124-0.054-3.188-0.082c9.777,0.568,17.742,2.146,21.426,2.982v35.318c-9.086,12.701-18.93,19.141-29.269,19.14
		c-0.001,0-0.003,0-0.003,0c-16.035-0.003-29.104-15.423-32.015-19.132l1.554-33.314c0.598-0.23,1.221-0.436,1.831-0.652
		c-0.431,0.116-0.86,0.233-1.285,0.344c-0.591,0.156-1.18,0.313-1.767,0.47l-0.877,0.231l-0.797,0.254
		c-1.068,0.354-2.133,0.682-3.189,1.007l-1.563,33.507l0.603,0.845c0.653,0.916,16.255,22.44,37.504,22.442c0.001,0,0.002,0,0.004,0
		c12.618,0,24.302-7.559,34.728-22.467l0.541-0.772V244.82c-0.849-0.242-1.696-0.484-2.553-0.744
		C307.776,243.718,306.599,243.542,305.441,243.264z"/>
	<linearGradient id="SVGID_9_" gradientUnits="userSpaceOnUse" x1="239.6309" y1="240.9355" x2="311.4443" y2="240.9355">
		<stop  offset="0" style="stop-color:#C09034"/>
		<stop  offset="0.5419" style="stop-color:#F4D76C"/>
		<stop  offset="1" style="stop-color:#C09034"/>
	</linearGradient>
	<path fill="url(#SVGID_9_)" d="M242.818,246.273l0.795-0.254l0.878-0.232c0.587-0.156,1.176-0.313,1.767-0.471
		c0.426-0.108,0.855-0.227,1.285-0.342c8.505-3.011,18.342-4.554,29.342-4.554c2.456,0,4.844,0.078,7.135,0.211
		c1.063,0.027,2.127,0.054,3.188,0.082c1.254,0.079,2.501,0.211,3.746,0.312c1.242,0.121,2.486,0.188,3.714,0.351
		c1.226,0.179,2.442,0.356,3.653,0.534c1.207,0.199,2.431,0.297,3.604,0.579c1.183,0.26,2.354,0.518,3.517,0.772
		c1.157,0.279,2.336,0.455,3.45,0.813c0.855,0.26,1.704,0.502,2.553,0.743v-5.283c-0.378-0.131-0.746-0.266-1.128-0.395
		c-1.161-0.422-2.386-0.66-3.593-1.005c-1.215-0.317-2.439-0.64-3.674-0.964c-1.229-0.346-2.508-0.504-3.774-0.767
		c-1.075-0.202-2.16-0.405-3.248-0.608c-2.799-0.395-5.952-0.754-9.358-1.007c-1.028-0.04-2.058-0.079-3.09-0.119
		c-2.669-0.161-5.345-0.032-8.021,0.035c-0.67,0.03-1.34,0.036-2.007,0.086l-1.995,0.187c-1.33,0.125-2.658,0.248-3.984,0.373
		c-1.324,0.135-2.633,0.371-3.942,0.553c-1.307,0.209-2.62,0.354-3.905,0.613c-2.576,0.537-5.129,0.955-7.634,1.678
		c-1.252,0.328-2.497,0.656-3.731,0.979c-1.227,0.334-2.377,0.724-3.555,1.077c-0.584,0.182-1.166,0.359-1.744,0.54l-0.867,0.269
		c-0.392,0.125-0.604,0.217-0.914,0.326c-0.473,0.172-0.932,0.353-1.398,0.528l-0.25,5.364
		C240.686,246.954,241.749,246.626,242.818,246.273z"/>
	<linearGradient id="SVGID_10_" gradientUnits="userSpaceOnUse" x1="260.7852" y1="265.5557" x2="289.4512" y2="265.5557">
		<stop  offset="0" style="stop-color:#C09034"/>
		<stop  offset="0.5419" style="stop-color:#F4D76C"/>
		<stop  offset="1" style="stop-color:#C09034"/>
	</linearGradient>
	<circle fill="url(#SVGID_10_)" cx="275.118" cy="265.556" r="14.333"/>
</g>
<g>
	<g>
		<g>
			<linearGradient id="SVGID_11_" gradientUnits="userSpaceOnUse" x1="21.811" y1="86" x2="59.5229" y2="86">
				<stop  offset="0" style="stop-color:#C09034"/>
				<stop  offset="0.5419" style="stop-color:#F4D76C"/>
				<stop  offset="1" style="stop-color:#C09034"/>
			</linearGradient>
			<path fill="url(#SVGID_11_)" d="M40.667,104.856L21.811,86l18.856-18.856L59.523,86L40.667,104.856z M27.468,86l13.199,13.199
				L53.866,86L40.667,72.801L27.468,86z"/>
		</g>
		<g>
			<linearGradient id="SVGID_12_" gradientUnits="userSpaceOnUse" x1="51.3638" y1="86" x2="62.0244" y2="86">
				<stop  offset="0" style="stop-color:#C09034"/>
				<stop  offset="0.5419" style="stop-color:#F4D76C"/>
				<stop  offset="1" style="stop-color:#C09034"/>
			</linearGradient>
			<path fill="url(#SVGID_12_)" d="M52.923,89.771c-2.079-2.079-2.079-5.462,0-7.542c2.079-2.079,5.463-2.079,7.542,0
				c2.079,2.08,2.079,5.463,0,7.542C58.386,91.85,55.002,91.85,52.923,89.771z M57.637,85.057c-0.52-0.52-1.365-0.52-1.885,0
				s-0.52,1.366,0,1.885s1.365,0.52,1.885,0C58.157,86.423,58.157,85.577,57.637,85.057z"/>
		</g>
		<g>
			<linearGradient id="SVGID_13_" gradientUnits="userSpaceOnUse" x1="35.3369" y1="102.0269" x2="45.9971" y2="102.0269">
				<stop  offset="0" style="stop-color:#C09034"/>
				<stop  offset="0.5419" style="stop-color:#F4D76C"/>
				<stop  offset="1" style="stop-color:#C09034"/>
			</linearGradient>
			<path fill="url(#SVGID_13_)" d="M36.896,105.798c-2.079-2.079-2.079-5.463,0-7.542c2.08-2.079,5.463-2.079,7.542,0
				s2.079,5.463,0,7.542C42.358,107.877,38.975,107.877,36.896,105.798z M41.609,101.085c-0.52-0.52-1.366-0.52-1.885,0
				s-0.52,1.365,0,1.885c0.52,0.521,1.366,0.521,1.885,0C42.129,102.45,42.129,101.604,41.609,101.085z"/>
		</g>
		<g>
			<linearGradient id="SVGID_14_" gradientUnits="userSpaceOnUse" x1="19.3086" y1="86" x2="29.9692" y2="86">
				<stop  offset="0" style="stop-color:#C09034"/>
				<stop  offset="0.5419" style="stop-color:#F4D76C"/>
				<stop  offset="1" style="stop-color:#C09034"/>
			</linearGradient>
			<path fill="url(#SVGID_14_)" d="M20.868,89.771c-2.079-2.079-2.079-5.462,0-7.542c2.079-2.079,5.463-2.079,7.542,0
				c2.079,2.08,2.079,5.463,0,7.542C26.331,91.85,22.947,91.85,20.868,89.771z M25.582,85.057c-0.52-0.52-1.365-0.52-1.885,0
				s-0.52,1.366,0,1.885c0.52,0.52,1.366,0.52,1.885,0S26.101,85.577,25.582,85.057z"/>
		</g>
		<g>
			<linearGradient id="SVGID_15_" gradientUnits="userSpaceOnUse" x1="35.3369" y1="69.9722" x2="45.9971" y2="69.9722">
				<stop  offset="0" style="stop-color:#C09034"/>
				<stop  offset="0.5419" style="stop-color:#F4D76C"/>
				<stop  offset="1" style="stop-color:#C09034"/>
			</linearGradient>
			<path fill="url(#SVGID_15_)" d="M36.896,73.743c-2.079-2.079-2.079-5.463,0-7.542c2.08-2.079,5.463-2.079,7.542,0
				s2.079,5.463,0,7.542C42.358,75.822,38.975,75.822,36.896,73.743z M41.609,69.029c-0.52-0.52-1.366-0.52-1.885,0
				c-0.52,0.52-0.52,1.366,0,1.885c0.52,0.52,1.366,0.52,1.885,0C42.129,70.395,42.129,69.549,41.609,69.029z"/>
		</g>
	</g>
	<g>
		<g>
			<linearGradient id="SVGID_16_" gradientUnits="userSpaceOnUse" x1="21.811" y1="152.7852" x2="59.5229" y2="152.7852">
				<stop  offset="0" style="stop-color:#C09034"/>
				<stop  offset="0.5419" style="stop-color:#F4D76C"/>
				<stop  offset="1" style="stop-color:#C09034"/>
			</linearGradient>
			<path fill="url(#SVGID_16_)" d="M40.667,171.641l-18.856-18.856l18.856-18.856l18.856,18.856L40.667,171.641z M27.468,152.785
				l13.199,13.199l13.199-13.199l-13.199-13.199L27.468,152.785z"/>
		</g>
		<g>
			<linearGradient id="SVGID_17_" gradientUnits="userSpaceOnUse" x1="51.3638" y1="152.7842" x2="62.0244" y2="152.7842">
				<stop  offset="0" style="stop-color:#C09034"/>
				<stop  offset="0.5419" style="stop-color:#F4D76C"/>
				<stop  offset="1" style="stop-color:#C09034"/>
			</linearGradient>
			<path fill="url(#SVGID_17_)" d="M52.923,156.555c-2.079-2.079-2.079-5.462,0-7.542c2.079-2.079,5.463-2.079,7.542,0
				c2.079,2.08,2.079,5.463,0,7.542C58.386,158.635,55.002,158.635,52.923,156.555z M57.637,151.842c-0.52-0.52-1.365-0.52-1.885,0
				c-0.52,0.52-0.52,1.366,0,1.885s1.365,0.52,1.885,0C58.157,153.208,58.157,152.361,57.637,151.842z"/>
		</g>
		<g>
			<linearGradient id="SVGID_18_" gradientUnits="userSpaceOnUse" x1="35.3369" y1="168.812" x2="45.9971" y2="168.812">
				<stop  offset="0" style="stop-color:#C09034"/>
				<stop  offset="0.5419" style="stop-color:#F4D76C"/>
				<stop  offset="1" style="stop-color:#C09034"/>
			</linearGradient>
			<path fill="url(#SVGID_18_)" d="M36.896,172.583c-2.079-2.079-2.079-5.463,0-7.542c2.08-2.079,5.463-2.079,7.542,0
				s2.079,5.463,0,7.542C42.358,174.662,38.975,174.662,36.896,172.583z M41.609,167.87c-0.52-0.52-1.366-0.52-1.885,0
				s-0.52,1.365,0,1.885s1.366,0.52,1.885,0C42.129,169.235,42.129,168.389,41.609,167.87z"/>
		</g>
		<g>
			<linearGradient id="SVGID_19_" gradientUnits="userSpaceOnUse" x1="19.3086" y1="152.7842" x2="29.9692" y2="152.7842">
				<stop  offset="0" style="stop-color:#C09034"/>
				<stop  offset="0.5419" style="stop-color:#F4D76C"/>
				<stop  offset="1" style="stop-color:#C09034"/>
			</linearGradient>
			<path fill="url(#SVGID_19_)" d="M20.868,156.555c-2.079-2.079-2.079-5.462,0-7.542c2.079-2.079,5.463-2.079,7.542,0
				c2.079,2.08,2.079,5.463,0,7.542C26.331,158.635,22.947,158.635,20.868,156.555z M25.582,151.842c-0.52-0.52-1.365-0.52-1.885,0
				c-0.52,0.52-0.52,1.366,0,1.885c0.52,0.52,1.366,0.52,1.885,0S26.101,152.361,25.582,151.842z"/>
		</g>
		<g>
			<linearGradient id="SVGID_20_" gradientUnits="userSpaceOnUse" x1="35.3369" y1="136.7568" x2="45.9971" y2="136.7568">
				<stop  offset="0" style="stop-color:#C09034"/>
				<stop  offset="0.5419" style="stop-color:#F4D76C"/>
				<stop  offset="1" style="stop-color:#C09034"/>
			</linearGradient>
			<path fill="url(#SVGID_20_)" d="M36.896,140.528c-2.079-2.079-2.079-5.463,0-7.542c2.08-2.079,5.463-2.079,7.542,0
				c2.079,2.079,2.079,5.463,0,7.542C42.358,142.607,38.975,142.607,36.896,140.528z M41.609,135.814c-0.52-0.52-1.366-0.52-1.885,0
				c-0.52,0.52-0.52,1.366,0,1.885c0.52,0.52,1.366,0.52,1.885,0C42.129,137.18,42.129,136.334,41.609,135.814z"/>
		</g>
	</g>
	<g>
		<g>
			<linearGradient id="SVGID_21_" gradientUnits="userSpaceOnUse" x1="76.7261" y1="126.2139" x2="114.438" y2="126.2139">
				<stop  offset="0" style="stop-color:#C09034"/>
				<stop  offset="0.5419" style="stop-color:#F4D76C"/>
				<stop  offset="1" style="stop-color:#C09034"/>
			</linearGradient>
			<path fill="url(#SVGID_21_)" d="M95.582,145.07l-18.856-18.856l18.856-18.856l18.856,18.856L95.582,145.07z M82.382,126.214
				l13.199,13.199l13.199-13.199l-13.199-13.199L82.382,126.214z"/>
		</g>
		<g>
			<linearGradient id="SVGID_22_" gradientUnits="userSpaceOnUse" x1="106.2783" y1="126.2134" x2="116.9395" y2="126.2134">
				<stop  offset="0" style="stop-color:#C09034"/>
				<stop  offset="0.5419" style="stop-color:#F4D76C"/>
				<stop  offset="1" style="stop-color:#C09034"/>
			</linearGradient>
			<path fill="url(#SVGID_22_)" d="M107.838,129.984c-2.079-2.079-2.079-5.462,0-7.542c2.079-2.079,5.463-2.079,7.542,0
				c2.079,2.08,2.079,5.463,0,7.542C113.301,132.064,109.917,132.064,107.838,129.984z M112.551,125.271
				c-0.52-0.52-1.365-0.52-1.885,0s-0.52,1.366,0,1.885c0.52,0.519,1.365,0.52,1.885,0
				C113.071,126.637,113.071,125.791,112.551,125.271z"/>
		</g>
		<g>
			<linearGradient id="SVGID_23_" gradientUnits="userSpaceOnUse" x1="90.251" y1="142.2412" x2="100.9111" y2="142.2412">
				<stop  offset="0" style="stop-color:#C09034"/>
				<stop  offset="0.5419" style="stop-color:#F4D76C"/>
				<stop  offset="1" style="stop-color:#C09034"/>
			</linearGradient>
			<path fill="url(#SVGID_23_)" d="M91.81,146.012c-2.079-2.079-2.079-5.463,0-7.542c2.08-2.079,5.463-2.079,7.542,0
				c2.079,2.079,2.079,5.463,0,7.542C97.273,148.091,93.89,148.091,91.81,146.012z M96.524,141.299c-0.52-0.52-1.366-0.52-1.885,0
				s-0.52,1.365,0,1.885s1.366,0.52,1.885,0S97.043,141.818,96.524,141.299z"/>
		</g>
		<g>
			<linearGradient id="SVGID_24_" gradientUnits="userSpaceOnUse" x1="74.2236" y1="126.2134" x2="84.8843" y2="126.2134">
				<stop  offset="0" style="stop-color:#C09034"/>
				<stop  offset="0.5419" style="stop-color:#F4D76C"/>
				<stop  offset="1" style="stop-color:#C09034"/>
			</linearGradient>
			<path fill="url(#SVGID_24_)" d="M75.783,129.984c-2.079-2.079-2.079-5.462,0-7.542c2.079-2.079,5.463-2.079,7.542,0
				c2.079,2.08,2.079,5.463,0,7.542C81.246,132.064,77.862,132.064,75.783,129.984z M80.496,125.271c-0.52-0.52-1.365-0.52-1.885,0
				s-0.52,1.366,0,1.885c0.52,0.52,1.366,0.52,1.885,0C81.015,126.636,81.016,125.791,80.496,125.271z"/>
		</g>
		<g>
			<linearGradient id="SVGID_25_" gradientUnits="userSpaceOnUse" x1="90.251" y1="110.186" x2="100.9111" y2="110.186">
				<stop  offset="0" style="stop-color:#C09034"/>
				<stop  offset="0.5419" style="stop-color:#F4D76C"/>
				<stop  offset="1" style="stop-color:#C09034"/>
			</linearGradient>
			<path fill="url(#SVGID_25_)" d="M91.81,113.957c-2.079-2.079-2.079-5.463,0-7.542c2.08-2.079,5.463-2.079,7.542,0
				s2.079,5.463,0,7.542S93.89,116.036,91.81,113.957z M96.524,109.243c-0.52-0.52-1.366-0.52-1.885,0
				c-0.52,0.52-0.52,1.366,0,1.885c0.52,0.52,1.366,0.52,1.885,0C97.043,110.609,97.043,109.763,96.524,109.243z"/>
		</g>
	</g>
</g>
</svg>
